<svg width="560" height="255" viewBox="0 0 560 255" fill="none" xmlns="http://www.w3.org/2000/svg">
    <defs>
      <linearGradient id="edge" x1="0" y1="0" x2="560" y2="255"><stop stop-color="#8B5CF6"/><stop offset="1" stop-color="#22D3EE"/></linearGradient>
      <radialGradient id="glow"><stop stop-color="#8B5CF6" stop-opacity=".22"/><stop offset="1" stop-color="#8B5CF6" stop-opacity="0"/></radialGradient>
      <filter id="blur"><feGaussianBlur stdDeviation="24"/></filter>
    </defs>
    <rect width="560" height="255" rx="22" fill="#070B14"/>
    <rect x=".75" y=".75" width="558.5" height="253.5" rx="21.25" stroke="url(#edge)" stroke-opacity=".75" stroke-width="1.5"/>
    <ellipse cx="490" cy="30" rx="155" ry="112" fill="url(#glow)" filter="url(#blur)"/>
    <rect x="26" y="24" width="101" height="28" rx="14" fill="#0F172A" stroke="#8B5CF6" stroke-opacity=".48"/>
    <circle cx="42" cy="38" r="4" fill="#8B5CF6"/>
    <text x="54" y="42" font-family="Arial,Helvetica,sans-serif" font-size="10.5" font-weight="700" letter-spacing="1.25" fill="#CBD5E1">AGENTIC AI</text>
    <text x="28" y="92" font-family="Arial,Helvetica,sans-serif" font-size="25" font-weight="800" fill="#F8FAFC">InterviX Aura</text>
    <rect x="28" y="105" width="76" height="3" rx="1.5" fill="url(#edge)"/>
    <text x="28" y="143" font-family="Arial,Helvetica,sans-serif" font-size="13.5" font-weight="600" fill="#CBD5E1">Multi-agent mock interview platform</text>
    <text x="28" y="166" font-family="Arial,Helvetica,sans-serif" font-size="13" fill="#94A3B8">Interviewer • Candidate • Evaluator agents</text>
    
        <g opacity=".58" transform="translate(446 40)">
          <path d="M10 20L48 7L78 34L62 75L20 72L10 20Z" stroke="#8B5CF6" stroke-width="1.6"/>
          <path d="M48 7L62 75M10 20L78 34M20 72L78 34" stroke="#22D3EE" stroke-opacity=".6"/>
          <circle cx="10" cy="20" r="4" fill="#8B5CF6"/><circle cx="48" cy="7" r="4" fill="#22D3EE"/>
          <circle cx="78" cy="34" r="4" fill="#8B5CF6"/><circle cx="62" cy="75" r="4" fill="#22D3EE"/><circle cx="20" cy="72" r="4" fill="#8B5CF6"/>
        </g>
    <rect x="36" y="205" width="68" height="26" rx="13" fill="#0B1220" stroke="#8B5CF6" stroke-opacity=".42"/><text x="70.2" y="222" text-anchor="middle" font-family="Arial,Helvetica,sans-serif" font-size="10.5" font-weight="700" fill="#CBD5E1">AutoGen</text><rect x="112" y="205" width="68" height="26" rx="13" fill="#0B1220" stroke="#8B5CF6" stroke-opacity=".42"/><text x="146.6" y="222" text-anchor="middle" font-family="Arial,Helvetica,sans-serif" font-size="10.5" font-weight="700" fill="#CBD5E1">FastAPI</text><rect x="189" y="205" width="83" height="26" rx="13" fill="#0B1220" stroke="#8B5CF6" stroke-opacity=".42"/><text x="230.2" y="222" text-anchor="middle" font-family="Arial,Helvetica,sans-serif" font-size="10.5" font-weight="700" fill="#CBD5E1">WebSocket</text><rect x="280" y="205" width="61" height="26" rx="13" fill="#0B1220" stroke="#8B5CF6" stroke-opacity=".42"/><text x="310.2" y="222" text-anchor="middle" font-family="Arial,Helvetica,sans-serif" font-size="10.5" font-weight="700" fill="#CBD5E1">Gemini</text><rect x="349" y="205" width="61" height="26" rx="13" fill="#0B1220" stroke="#8B5CF6" stroke-opacity=".42"/><text x="379.4" y="222" text-anchor="middle" font-family="Arial,Helvetica,sans-serif" font-size="10.5" font-weight="700" fill="#CBD5E1">Ollama</text>
    </svg>